<?xml version="1.0" standalone="no"?>
<!DOCTYPE svg PUBLIC "-//W3C//DTD SVG 20010904//EN"
 "http://www.w3.org/TR/2001/REC-SVG-20010904/DTD/svg10.dtd">
<svg version="1.0" xmlns="http://www.w3.org/2000/svg"
 width="1254.000000pt" height="1254.000000pt" viewBox="0 0 1254.000000 1254.000000"
 preserveAspectRatio="xMidYMid meet">
<metadata>
Created by potrace 1.11, written by Peter Selinger 2001-2013
</metadata>
<g transform="translate(0.000000,1254.000000) scale(0.100000,-0.100000)"
fill="#000000" stroke="none">
<path d="M5309 12516 c-2 -2 -43 -7 -90 -10 -47 -4 -94 -8 -106 -10 -11 -2
-44 -7 -74 -11 -30 -4 -106 -17 -170 -30 -512 -104 -958 -306 -1369 -619 -103
-79 -130 -102 -239 -201 -214 -194 -441 -473 -596 -730 -51 -85 -157 -289
-189 -365 -11 -25 -29 -67 -41 -95 -35 -79 -111 -311 -139 -420 -24 -97 -30
-123 -41 -182 -3 -16 -9 -48 -15 -73 -12 -61 -18 -103 -26 -180 -3 -36 -10
-96 -14 -135 -10 -87 -7 -6955 3 -7010 4 -22 12 -71 18 -110 6 -38 13 -83 15
-100 3 -16 16 -77 30 -135 158 -656 541 -1218 1101 -1616 63 -45 233 -148 301
-182 23 -12 59 -31 80 -41 65 -34 253 -108 352 -139 147 -47 234 -68 380 -94
123 -21 164 -23 470 -23 323 0 340 1 475 27 795 155 1431 590 1861 1273 165
263 316 660 360 945 2 19 9 58 14 85 18 92 24 208 25 410 0 214 -6 289 -35
455 -35 197 -43 228 -99 400 -54 162 -56 168 -145 350 -33 69 -62 129 -64 134
-4 8 76 -50 88 -65 16 -19 179 -120 264 -164 278 -144 552 -206 881 -200 193
4 195 4 360 41 490 108 937 432 1183 859 119 207 183 391 237 685 14 73 13
385 0 480 -17 118 -25 161 -30 170 -2 4 -7 22 -10 41 -12 68 -77 246 -130 354
-241 496 -689 858 -1225 988 -154 38 -254 49 -455 52 -131 2 -195 8 -235 19
-166 50 -300 193 -342 366 -8 31 -12 455 -13 1395 -1 743 -5 1373 -8 1400 -47
388 -146 677 -335 977 -147 233 -310 411 -548 598 -65 51 -217 144 -329 200
-175 89 -345 149 -550 195 -54 12 -81 16 -195 32 -42 6 -635 14 -641 9z m489
-443 c321 -238 588 -588 737 -968 40 -104 81 -236 91 -294 3 -14 9 -39 14 -56
5 -16 14 -66 20 -110 6 -44 14 -93 17 -110 3 -16 7 -1159 8 -2539 2 -1381 6
-2548 9 -2595 15 -208 86 -506 152 -633 19 -36 13 -35 -27 5 -167 164 -452
360 -700 480 -137 66 -370 153 -459 172 -8 2 -51 12 -95 23 -44 11 -114 26
-155 32 -41 7 -82 14 -91 15 -120 22 -274 29 -559 22 -123 -2 -220 22 -343 84
-186 94 -326 279 -379 499 -20 84 -20 108 -20 1625 0 1408 2 1618 17 1755 3
25 7 68 10 95 17 162 88 479 145 647 71 208 176 443 267 596 23 41 43 76 43
78 0 9 143 219 204 299 200 263 460 514 743 716 93 66 291 189 306 189 5 0 25
-12 45 -27z m-688 -7967 c304 -48 528 -160 730 -365 238 -239 362 -542 362
-876 -1 -374 -156 -702 -458 -965 -80 -70 -256 -169 -369 -209 -225 -77 -437
-92 -686 -46 -35 7 -166 47 -199 62 -172 74 -299 160 -421 282 -184 186 -299
406 -344 656 -4 22 -9 51 -12 65 -12 64 -4 338 12 382 2 7 7 24 9 38 34 180
132 381 265 540 169 202 415 354 666 410 28 7 59 14 70 16 11 3 54 7 95 11 41
3 76 7 78 8 4 3 171 -4 202 -9z"/>
</g>
</svg>
