<svg xmlns="http://www.w3.org/2000/svg" xmlns:xlink="http://www.w3.org/1999/xlink" id="Capa_1" x="0" y="0" enable-background="new 0 0 58 58" version="1.1" viewBox="0 0 58 58" xml:space="preserve"><style type="text/css">.st0{fill:#ff003d}.st1{fill:#fff}</style><circle cx="29" cy="29" r="29" class="st0"/><g><polygon points="44 29 22 44 22 29.3 22 14" class="st1"/><path d="M22,45c-0.2,0-0.3,0-0.5-0.1C21.2,44.7,21,44.4,21,44V14c0-0.4,0.2-0.7,0.5-0.9s0.7-0.1,1,0.1l22,15 c0.3,0.2,0.4,0.5,0.4,0.8s-0.2,0.6-0.4,0.8l-22,15C22.4,44.9,22.2,45,22,45z M23,15.9v26.2L42.2,29L23,15.9z" class="st1"/></g></svg>