<svg xmlns="http://www.w3.org/2000/svg" xmlns:xlink="http://www.w3.org/1999/xlink" id="Capa_1" x="0" y="0" enable-background="new 0 0 54.9 54.9" version="1.1" viewBox="0 0 54.9 54.9" xml:space="preserve"><style type="text/css">.st0{fill:#ff003d}</style><path d="M52.1,0.2C51.9,0.1,51.6,0,51.3,0l-31,4c-0.5,0.1-0.9,0.5-0.9,1v6v4.2v26c-1.7-2-4.4-3.3-7.5-3.3	c-5.2,0-9.5,3.8-9.5,8.4s4.3,8.4,9.5,8.4s9.5-3.8,9.5-8.4c0-0.3,0-0.7-0.1-1c0-0.1,0.1-0.2,0.1-0.3v-29l29-3.8v18.9	c-1.7-2-4.4-3.3-7.5-3.3c-5.2,0-9.5,3.8-9.5,8.4s4.3,8.4,9.5,8.4s9.5-3.8,9.5-8.4c0-0.1,0-0.2,0-0.3c0,0,0,0,0-0.1V11.2V7V1	C52.4,0.7,52.3,0.4,52.1,0.2z" class="st0"/></svg>