<svg xmlns="http://www.w3.org/2000/svg" width="682.667" height="682.667" preserveAspectRatio="xMidYMid meet" version="1.0" viewBox="0 0 512 512"><metadata>Created by potrace 1.11, written by Peter Selinger 2001-2013</metadata><g fill="#000" stroke="none"><path d="M2227 5114 c-1 -1 -36 -4 -77 -8 -65 -6 -96 -9 -170 -20 -9 -1 -20 -5 -25 -8 -6 -3 -28 -9 -50 -13 -46 -8 -215 -71 -229 -86 -6 -5 -16 -9 -23 -9 -36 0 -244 -146 -344 -242 -60 -57 -189 -212 -189 -228 0 -5 -7 -15 -15 -24 -26 -26 -112 -207 -141 -296 -15 -47 -27 -86 -26 -87 0 -2 -4 -17 -9 -35 -5 -18 -12 -53 -15 -78 -3 -25 -9 -54 -11 -65 -3 -11 -6 -659 -7 -1440 -2 -1100 1 -1440 11 -1510 22 -159 72 -299 156 -440 96 -161 298 -339 477 -422 173 -81 289 -104 500 -99 91 2 174 6 185 9 11 3 40 10 65 17 25 7 50 13 55 15 15 3 46 15 83 31 18 8 39 14 46 14 8 0 19 7 26 15 7 8 21 15 31 15 11 0 19 5 19 12 0 6 3 9 6 5 3 -3 11 -1 18 4 6 6 40 29 76 52 54 35 214 183 257 240 38 49 107 165 133 223 25 54 65 173 62 181 0 2 4 17 9 35 30 98 33 400 5 479 -3 8 -8 25 -10 39 -10 54 -72 220 -86 230 -8 6 -21 40 -15 40 3 0 26 -15 52 -34 67 -47 143 -84 213 -105 131 -39 339 -36 450 7 8 3 17 6 20 7 100 34 217 111 291 192 215 233 263 566 122 848 -44 89 -71 124 -153 205 -146 142 -307 204 -552 213 -81 3 -89 6 -132 38 -29 22 -52 50 -65 81 -18 44 -19 73 -20 605 0 591 -5 672 -48 783 -4 8 -7 17 -8 20 -50 147 -179 317 -317 418 -76 56 -236 131 -313 148 -86 18 -146 25 -242 27 -41 1 -75 1 -76 1z m168 -206 c68 -57 134 -131 179 -198 44 -67 85 -143 92 -170 2 -8 10 -35 19 -60 9 -25 21 -67 26 -95 5 -27 11 -61 14 -75 3 -14 5 -497 5 -1075 1 -1070 1 -1061 35 -1214 3 -13 13 -38 22 -55 l16 -31 -44 38 c-93 79 -286 197 -324 197 -8 0 -15 5 -15 12 0 6 -3 9 -6 5 -4 -3 -21 0 -38 7 -17 7 -53 18 -81 25 -123 29 -155 33 -299 35 -118 2 -136 5 -181 28 -28 15 -66 41 -84 60 -31 31 -65 84 -59 91 2 2 -2 10 -9 18 -12 15 -27 107 -24 144 3 26 3 63 1 95 -1 14 -1 144 -1 290 0 146 0 272 0 280 0 18 0 116 1 145 0 11 0 49 0 85 -1 147 0 163 4 167 2 3 0 17 -4 33 -4 16 -6 31 -3 33 2 3 6 47 9 99 2 51 6 104 9 118 3 14 8 41 11 60 11 69 50 199 81 270 30 70 75 155 91 173 8 9 12 17 8 17 -6 0 70 109 84 120 4 3 11 13 16 22 20 38 153 166 229 223 22 17 49 38 59 48 11 9 25 17 32 17 7 0 14 3 16 8 3 7 59 41 69 42 3 0 23 -15 44 -32z m-200 -3258 c33 -13 62 -26 65 -29 3 -3 19 -13 35 -21 39 -19 155 -135 155 -155 0 -8 3 -15 8 -15 12 0 58 -114 67 -167 6 -38 7 -144 2 -173 -33 -161 -129 -296 -263 -367 -192 -102 -410 -76 -580 69 -76 65 -118 136 -161 273 -12 39 -9 167 6 228 13 54 49 135 68 155 7 7 13 17 13 21 0 4 25 33 57 64 61 61 153 113 236 133 79 18 220 10 292 -16z" transform="translate(0.000000,512.000000) scale(0.100000,-0.100000)"/></g></svg>